<svg viewBox="0 0 1018 400" xmlns="http://www.w3.org/2000/svg"><g><g><g><g><g><line x1="41.171875" y1="377.921875" x2="36.171875" y2="377.921875" style="visibility: inherit;" fill="rgb(0, 0, 0)" stroke="rgb(204, 204, 204)" stroke-width="1px"></line><line x1="41.171875" y1="340.1296875" x2="36.171875" y2="340.1296875" style="visibility: inherit;" fill="rgb(0, 0, 0)" stroke="rgb(204, 204, 204)" stroke-width="1px"></line><line x1="41.171875" y1="302.33750000000003" x2="36.171875" y2="302.33750000000003" style="visibility: inherit;" fill="rgb(0, 0, 0)" stroke="rgb(204, 204, 204)" stroke-width="1px"></line><line x1="41.171875" y1="264.54531249999997" x2="36.171875" y2="264.54531249999997" style="visibility: inherit;" fill="rgb(0, 0, 0)" stroke="rgb(204, 204, 204)" stroke-width="1px"></line><line x1="41.171875" y1="226.75312499999998" x2="36.171875" y2="226.75312499999998" style="visibility: inherit;" fill="rgb(0, 0, 0)" stroke="rgb(204, 204, 204)" stroke-width="1px"></line><line x1="41.171875" y1="188.9609375" x2="36.171875" y2="188.9609375" style="visibility: inherit;" fill="rgb(0, 0, 0)" stroke="rgb(204, 204, 204)" stroke-width="1px"></line><line x1="41.171875" y1="151.16875000000002" x2="36.171875" y2="151.16875000000002" style="visibility: inherit;" fill="rgb(0, 0, 0)" stroke="rgb(204, 204, 204)" stroke-width="1px"></line><line x1="41.171875" y1="113.37656250000002" x2="36.171875" y2="113.37656250000002" style="visibility: inherit;" fill="rgb(0, 0, 0)" stroke="rgb(204, 204, 204)" stroke-width="1px"></line><line x1="41.171875" y1="75.58437499999998" x2="36.171875" y2="75.58437499999998" style="visibility: inherit;" fill="rgb(0, 0, 0)" stroke="rgb(204, 204, 204)" stroke-width="1px"></line><line x1="41.171875" y1="37.79218749999999" x2="36.171875" y2="37.79218749999999" style="visibility: inherit;" fill="rgb(0, 0, 0)" stroke="rgb(204, 204, 204)" stroke-width="1px"></line><line x1="41.171875" y1="0" x2="36.171875" y2="0" style="visibility: inherit;" fill="rgb(0, 0, 0)" stroke="rgb(204, 204, 204)" stroke-width="1px"></line></g><g transform="translate(31.171875, 0)"><text style="text-anchor: end; visibility: hidden; font-family: Roboto, sans-serif; font-size: 12px; font-weight: 200;" x="0" y="377.921875" dx="0em" dy="0.3em" fill="rgb(50, 49, 63)" stroke="none" stroke-width="1px">-20</text><text style="text-anchor: end; visibility: inherit; font-family: Roboto, sans-serif; font-size: 12px; font-weight: 200;" x="0" y="340.1296875" dx="0em" dy="0.3em" fill="rgb(50, 49, 63)" stroke="none" stroke-width="1px">0</text><text style="text-anchor: end; visibility: inherit; font-family: Roboto, sans-serif; font-size: 12px; font-weight: 200;" x="0" y="302.33750000000003" dx="0em" dy="0.3em" fill="rgb(50, 49, 63)" stroke="none" stroke-width="1px">20</text><text style="text-anchor: end; visibility: inherit; font-family: Roboto, sans-serif; font-size: 12px; font-weight: 200;" x="0" y="264.54531249999997" dx="0em" dy="0.3em" fill="rgb(50, 49, 63)" stroke="none" stroke-width="1px">40</text><text style="text-anchor: end; visibility: inherit; font-family: Roboto, sans-serif; font-size: 12px; font-weight: 200;" x="0" y="226.75312499999998" dx="0em" dy="0.3em" fill="rgb(50, 49, 63)" stroke="none" stroke-width="1px">60</text><text style="text-anchor: end; visibility: inherit; font-family: Roboto, sans-serif; font-size: 12px; font-weight: 200;" x="0" y="188.9609375" dx="0em" dy="0.3em" fill="rgb(50, 49, 63)" stroke="none" stroke-width="1px">80</text><text style="text-anchor: end; visibility: inherit; font-family: Roboto, sans-serif; font-size: 12px; font-weight: 200;" x="0" y="151.16875000000002" dx="0em" dy="0.3em" fill="rgb(50, 49, 63)" stroke="none" stroke-width="1px">100</text><text style="text-anchor: end; visibility: inherit; font-family: Roboto, sans-serif; font-size: 12px; font-weight: 200;" x="0" y="113.37656250000002" dx="0em" dy="0.3em" fill="rgb(50, 49, 63)" stroke="none" stroke-width="1px">120</text><text style="text-anchor: end; visibility: inherit; font-family: Roboto, sans-serif; font-size: 12px; font-weight: 200;" x="0" y="75.58437499999998" dx="0em" dy="0.3em" fill="rgb(50, 49, 63)" stroke="none" stroke-width="1px">140</text><text style="text-anchor: end; visibility: inherit; font-family: Roboto, sans-serif; font-size: 12px; font-weight: 200;" x="0" y="37.79218749999999" dx="0em" dy="0.3em" fill="rgb(50, 49, 63)" stroke="none" stroke-width="1px">160</text><text style="text-anchor: end; visibility: hidden; font-family: Roboto, sans-serif; font-size: 12px; font-weight: 200;" x="0" y="0" dx="0em" dy="0.3em" fill="rgb(50, 49, 63)" stroke="none" stroke-width="1px">180</text></g><line x1="41.171875" y1="0" x2="41.171875" y2="377.921875" fill="rgb(0, 0, 0)" stroke="rgb(204, 204, 204)" stroke-width="1px"></line></g></g><g transform="translate(41, 0)" clip-path="url(#clip_0)"><clipPath id="clip_0"><rect width="976" height="377"></rect></clipPath><g><g><g><line x1="0" y1="0" x2="0" y2="377.921875" fill="rgb(0, 0, 0)" stroke="rgb(60, 60, 60)" stroke-width="1px" opacity="0.25"></line><line x1="81.40234375" y1="0" x2="81.40234375" y2="377.921875" fill="rgb(0, 0, 0)" stroke="rgb(60, 60, 60)" stroke-width="1px" opacity="0.25"></line><line x1="162.8046875" y1="0" x2="162.8046875" y2="377.921875" fill="rgb(0, 0, 0)" stroke="rgb(60, 60, 60)" stroke-width="1px" opacity="0.25"></line><line x1="244.20703125" y1="0" x2="244.20703125" y2="377.921875" fill="rgb(0, 0, 0)" stroke="rgb(60, 60, 60)" stroke-width="1px" opacity="0.25"></line><line x1="325.609375" y1="0" x2="325.609375" y2="377.921875" fill="rgb(0, 0, 0)" stroke="rgb(60, 60, 60)" stroke-width="1px" opacity="0.25"></line><line x1="407.01171875" y1="0" x2="407.01171875" y2="377.921875" fill="rgb(0, 0, 0)" stroke="rgb(60, 60, 60)" stroke-width="1px" opacity="0.25"></line><line x1="488.4140625" y1="0" x2="488.4140625" y2="377.921875" fill="rgb(0, 0, 0)" stroke="rgb(60, 60, 60)" stroke-width="1px" opacity="0.25"></line><line x1="569.81640625" y1="0" x2="569.81640625" y2="377.921875" fill="rgb(0, 0, 0)" stroke="rgb(60, 60, 60)" stroke-width="1px" opacity="0.25"></line><line x1="651.21875" y1="0" x2="651.21875" y2="377.921875" fill="rgb(0, 0, 0)" stroke="rgb(60, 60, 60)" stroke-width="1px" opacity="0.25"></line><line x1="732.62109375" y1="0" x2="732.62109375" y2="377.921875" fill="rgb(0, 0, 0)" stroke="rgb(60, 60, 60)" stroke-width="1px" opacity="0.25"></line><line x1="814.0234375" y1="0" x2="814.0234375" y2="377.921875" fill="rgb(0, 0, 0)" stroke="rgb(60, 60, 60)" stroke-width="1px" opacity="0.25"></line><line x1="895.42578125" y1="0" x2="895.42578125" y2="377.921875" fill="rgb(0, 0, 0)" stroke="rgb(60, 60, 60)" stroke-width="1px" opacity="0.25"></line><line x1="976.828125" y1="0" x2="976.828125" y2="377.921875" fill="rgb(0, 0, 0)" stroke="rgb(60, 60, 60)" stroke-width="1px" opacity="0.25"></line></g><g><line x1="0" y1="377.921875" x2="976.828125" y2="377.921875" fill="rgb(0, 0, 0)" stroke="rgb(60, 60, 60)" stroke-width="1px" opacity="0.25"></line><line x1="0" y1="340.1296875" x2="976.828125" y2="340.1296875" fill="rgb(0, 0, 0)" stroke="rgb(60, 60, 60)" stroke-width="1px" opacity="0.25"></line><line x1="0" y1="302.33750000000003" x2="976.828125" y2="302.33750000000003" fill="rgb(0, 0, 0)" stroke="rgb(60, 60, 60)" stroke-width="1px" opacity="0.25"></line><line x1="0" y1="264.54531249999997" x2="976.828125" y2="264.54531249999997" fill="rgb(0, 0, 0)" stroke="rgb(60, 60, 60)" stroke-width="1px" opacity="0.25"></line><line x1="0" y1="226.75312499999998" x2="976.828125" y2="226.75312499999998" fill="rgb(0, 0, 0)" stroke="rgb(60, 60, 60)" stroke-width="1px" opacity="0.25"></line><line x1="0" y1="188.9609375" x2="976.828125" y2="188.9609375" fill="rgb(0, 0, 0)" stroke="rgb(60, 60, 60)" stroke-width="1px" opacity="0.25"></line><line x1="0" y1="151.16875000000002" x2="976.828125" y2="151.16875000000002" fill="rgb(0, 0, 0)" stroke="rgb(60, 60, 60)" stroke-width="1px" opacity="0.25"></line><line x1="0" y1="113.37656250000002" x2="976.828125" y2="113.37656250000002" fill="rgb(0, 0, 0)" stroke="rgb(60, 60, 60)" stroke-width="1px" opacity="0.25"></line><line x1="0" y1="75.58437499999998" x2="976.828125" y2="75.58437499999998" fill="rgb(0, 0, 0)" stroke="rgb(60, 60, 60)" stroke-width="1px" opacity="0.25"></line><line x1="0" y1="37.79218749999999" x2="976.828125" y2="37.79218749999999" fill="rgb(0, 0, 0)" stroke="rgb(60, 60, 60)" stroke-width="1px" opacity="0.25"></line><line x1="0" y1="0" x2="976.828125" y2="0" fill="rgb(0, 0, 0)" stroke="rgb(60, 60, 60)" stroke-width="1px" opacity="0.25"></line></g></g></g><g><g><line x1="0" y1="340.1296875" x2="976.828125" y2="340.1296875" fill="rgb(0, 0, 0)" stroke="rgb(153, 153, 153)" stroke-width="1.5px"></line></g></g><g><g><line x1="81.40234375" y1="0" x2="81.40234375" y2="377.921875" fill="rgb(0, 0, 0)" stroke="rgb(153, 153, 153)" stroke-width="1.5px"></line></g></g><g><g><g><g><g><path style="fill: none;" stroke="rgb(0, 119, 187)" stroke-width="2px" d="M105.823046875,-19.301713464585532L113.96328125000001,132.56395295419372L122.103515625,215.58186615409477L130.24375,258.76089183694376L138.38398437499998,285.8495424501823L146.52421875,299.3408525605475L154.664453125,307.0809455510863L162.8046875,311.49508249030345L170.94492187499998,316.7083596580344L179.08515624999998,324.7380628215467L187.22539062500002,319.60958440833366L195.36562500000002,326.78871579652497L203.505859375,330.60916730403125L211.64609375,333.1459102397967L219.786328125,334.3189283398703L227.92656250000002,332.8515583811423L236.066796875,324.35702258836534L244.20703125,329.8979389954959L252.34726562500003,333.45431021066867L260.4875,330.7014463096103L268.62773437500005,332.2783854709153L276.76796874999997,-4716.963611638645L317.469140625,-93.2726979721768L325.609375,69.51707014272479L333.74960937500003,168.98152376109837L341.88984374999995,232.2660872307457L350.030078125,274.5054948980867L358.17031249999997,295.3732916899792L366.310546875,304.4362821900605L374.45078125000003,316.19660979079094L382.591015625,320.80702057781247L390.73125000000005,323.74698641299506L398.87148437499997,304.9637082297014L407.01171875,308.7285103466252L415.151953125,316.286246085847L423.2921875,324.7147513010867L431.432421875,330.33058646993504L439.57265625,327.8799674873586L447.712890625,327.68549437982335L455.85312500000003,328.9177053247555L463.99335937499995,330.44961592377666L472.13359375,332.77060322730506L480.27382812499997,332.96153998799036L488.4140625,334.4768089446613L496.554296875,331.6452870747775L504.69453125000007,328.68923199613357L512.834765625,332.71176395430706L520.975,334.0445739707853L529.115234375,331.66107778263034L537.2554687500001,317.8361498558606L545.3957031250001,326.19084475201805L553.5359374999999,329.92668392180644L561.6761718749999,333.35900772719395L569.81640625,334.55931801013315L577.956640625,335.17610354520184L586.096875,335.254791729002L594.2371093749999,336.44115044012966L602.37734375,334.55663098564924L610.517578125,332.89501270403673L618.6578125,334.8891772177418L626.7980468750001,336.91547752449395L634.93828125,320.78538479655674L643.078515625,323.7812877009642L651.21875,329.8582188439194L659.3589843750001,333.1761836493655L667.4992187500001,334.71705491215107L675.6394531249999,335.1163054189912L683.7796874999999,336.1333780379866L691.919921875,337.10121124743074L700.06015625,337.49074783338915L708.200390625,336.23228728079835L716.3406249999999,109.24866782631898L724.480859375,200.87820053636946L732.62109375,255.65594915108704L740.761328125,282.78631873271956L748.9015625000001,304.6406033500111L757.041796875,315.44585312219414L765.18203125,324.8783015662734L773.322265625,324.24956398837594L781.4625000000001,327.6581280259882L789.6027343750001,321.76562814310756L797.7429687499999,325.91109218797425L805.8832031249999,331.1235609626235L814.0234375,329.3283437386282L822.163671875,330.07287962170705L830.30390625,313.44893454314627L838.4441406249999,318.65569969561017L846.584375,315.5150680100698L854.724609375,323.40703697735245L862.86484375,326.23466359003885L871.0050781250001,330.323733413183L879.1453125,333.9326237994074L887.285546875,333.5409613412702" fill="none"></path></g><g><path style="fill: none;" stroke="rgb(255, 112, 67)" stroke-width="2px" d="M81.40234375,337.8370958718751L89.54257812499999,338.7353488319222L97.68281250000001,339.22438181339544L105.823046875,339.501777479327L113.96328125000001,339.6471178746531L122.103515625,339.7535144453935L130.24375,339.8367719205407L138.38398437499998,339.85874615388127L146.52421875,339.8930180458759L154.664453125,339.92492866140503L162.8046875,339.9551596298641L170.94492187499998,339.97954416598924L179.08515624999998,340.0106510417583L187.22539062500002,340.02669179666566L195.36562500000002,340.0396995068137L203.505859375,340.03630810532763L211.64609375,340.05077050278777L219.786328125,340.05590888158497L227.92656250000002,340.05842710619044L236.066796875,340.0426710858762L244.20703125,340.05037211322434L252.34726562500003,340.0628784231233L260.4875,340.068878079786L268.62773437500005,340.0757419321008L276.76796874999997,340.06834755487466L284.908203125,340.05548481940457L293.0484375,340.0598673770136L301.188671875,340.06743836614L309.32890625,340.05543959574607L317.469140625,340.0526812592005L325.609375,340.059274206821L333.74960937500003,340.07073289909124L341.88984374999995,340.0816912824303L350.030078125,340.0881714287855L358.17031249999997,340.090878300546L366.310546875,340.0899204669772L374.45078125000003,340.0989698151028L382.591015625,340.09627727877154L390.73125000000005,340.09178606831114L398.87148437499997,340.0944720064265L407.01171875,340.0782164738055L415.151953125,340.08011387026175L423.2921875,340.0908345454542L431.432421875,340.0918281102385L439.57265625,340.0711231760486L447.712890625,340.0733188313894L455.85312500000003,340.0772793502416L463.99335937499995,340.09241058975124L472.13359375,340.10447417083464L480.27382812499997,340.1049064127844L488.4140625,340.1018074110759L496.554296875,340.0985550732117L504.69453125000007,340.1067221378939L512.834765625,340.1096791374283L520.975,340.1048977943785L529.115234375,340.1065284700225L537.2554687500001,340.10749233423707L545.3957031250001,340.1119665481974L553.5359374999999,340.11166540556155L561.6761718749999,340.10768605160854L569.81640625,340.09962716682634L577.956640625,340.1063152869774L586.096875,340.10772445585553L594.2371093749999,340.1108790568312L602.37734375,340.10936905439286L610.517578125,340.1096678421966L618.6578125,340.1148881043608L626.7980468750001,340.1197907739237L634.93828125,340.1115770879362L643.078515625,340.1028268338321L651.21875,340.10474553609134L659.3589843750001,340.10832639036613L667.4992187500001,340.10537862732536L675.6394531249999,340.1018746713762L683.7796874999999,340.1072338498378L691.919921875,340.11260331752874L700.06015625,340.11764285456815L708.200390625,340.11667159292165L716.3406249999999,340.09200272300757L724.480859375,340.09548142442077L732.62109375,340.10527090342623L740.761328125,340.11238514893637L748.9015625000001,340.0947837817575L757.041796875,340.089113231373L765.18203125,340.1005620177105L773.322265625,340.10904416606337L781.4625000000001,340.1010246960372L789.6027343750001,340.1021246588934L797.7429687499999,340.11010135520206L805.8832031249999,340.11624926772964L814.0234375,340.11898530082146L822.163671875,340.1130308716054L830.30390625,340.09273617411213L838.4441406249999,340.09850177136093L846.584375,340.10692593220176L854.724609375,340.1067846745065L862.86484375,340.10633793643393L871.0050781250001,340.1025244599688L879.1453125,340.10998533790433L887.285546875,340.11505671787444" fill="none"></path></g></g></g></g><g opacity="0.20000000298023224"><g><g><g><path style="fill: none;" stroke="rgb(0, 119, 187)" stroke-width="2px" d="M81.40234375,-3063.6609090518955L89.54257812499999,242.78817727267742L97.68281250000001,333.46517318658533L105.823046875,332.2673801261559L113.96328125000001,330.839767030552L122.103515625,330.4255265583098L130.24375,320.5075894278288L138.38398437499998,325.3450550953299L146.52421875,319.23791442126037L154.664453125,318.5740815806389L162.8046875,318.076252001971L170.94492187499998,324.4999049855024L179.08515624999998,336.75639919280076L187.22539062500002,311.92691401161255L195.36562500000002,337.5489740793593L203.505859375,336.3371500868909L211.64609375,336.9499511788506L219.786328125,336.0781576608121L227.92656250000002,330.65072698209434L236.066796875,311.61599533341825L244.20703125,338.20900972916746L252.34726562500003,338.7887500095181L260.4875,326.5722048085183L268.62773437500005,334.643775532525L276.76796874999997,-12290.790719451905L284.908203125,336.25292214596647L293.0484375,337.37362301979215L301.188671875,329.2859539367259L309.32890625,331.6048853239417L317.469140625,249.83646983444692L325.609375,313.7016683322191L333.74960937500003,318.1781843985617L341.88984374999995,327.1929248803109L350.030078125,337.86460337357596L358.17031249999997,326.6749859809875L366.310546875,318.0307677064836L374.45078125000003,333.8371010099351L382.591015625,327.72263671554623L390.73125000000005,328.156935149394L398.87148437499997,276.78879101753233L407.01171875,314.3757135144621L415.151953125,327.62284968558697L423.2921875,337.3575091178622L431.432421875,338.7543392207753L439.57265625,324.20403901413084L447.712890625,327.39378471855076L455.85312500000003,330.76602174203845L463.99335937499995,332.7474818222225L472.13359375,336.25208418251947L480.27382812499997,333.24794512901457L488.4140625,336.7497123796493L496.554296875,327.39800426997243L504.69453125000007,324.25514937818053L512.834765625,338.74556189155675L520.975,336.0437889955006L529.115234375,328.08583350040016L537.2554687500001,297.09875796571373L545.3957031250001,338.7228870962513L553.5359374999999,335.5304426764883L561.6761718749999,338.5074934352748L569.81640625,336.3597834345419L577.956640625,336.1012818478048L586.096875,335.3728240047023L594.2371093749999,338.2206885068212L602.37734375,331.7298518039286L610.517578125,330.402585281618L618.6578125,337.88042398829947L626.7980468750001,339.9549279846222L634.93828125,296.5902457046509L643.078515625,328.2751420575753L651.21875,338.9736155583523L659.3589843750001,338.1531308575347L667.4992187500001,337.0283618063293L675.6394531249999,335.7151811792515L683.7796874999999,337.6589869664796L691.919921875,338.5529610615969L700.06015625,338.07505271232685L708.200390625,334.3445964519121L716.3406249999999,-231.2267613554001L724.480859375,338.32249960144514L732.62109375,337.8225720731635L740.761328125,323.48187310516835L748.9015625000001,337.4220302759483L757.041796875,331.6537277804687L765.18203125,339.0269742323924L773.322265625,323.3064576215297L781.4625000000001,332.7709740824066L789.6027343750001,312.92687831878663L797.7429687499999,332.1292882552743L805.8832031249999,338.94226412459744L814.0234375,326.63551790263506L822.163671875,331.1896834463254L830.30390625,288.5130169253051L838.4441406249999,326.465847424306L846.584375,310.8041204817593L854.724609375,335.24499042827637L862.86484375,330.4761035090685L871.0050781250001,336.4573381478991L879.1453125,339.345959378744L887.285546875,332.9534676540643" fill="none"></path></g><g><path style="fill: none;" stroke="rgb(255, 112, 67)" stroke-width="2px" d="M81.40234375,337.8370958718751L89.54257812499999,339.2743006079504L97.68281250000001,339.6938534756098L105.823046875,339.8279947824625L113.96328125000001,339.8368742947909L122.103515625,339.90069920549286L130.24375,339.9558314421208L138.38398437499998,339.8907847970445L146.52421875,339.9435624295956L154.664453125,339.9723122064752L162.8046875,340.00023188989377L170.94492187499998,340.01598827060803L179.08515624999998,340.05720978606547L187.22539062500002,340.050721503518L195.36562500000002,340.05919578196074L203.505859375,340.0312233949776L211.64609375,340.07245797897616L219.786328125,340.0636151451469L227.92656250000002,340.06220405947244L236.066796875,340.0190384955675L244.20703125,340.0619232319039L252.34726562500003,340.08163747644636L260.4875,340.0778774463272L268.62773437500005,340.0860376292642L276.76796874999997,340.0572560415915L284.908203125,340.0361907710531L293.0484375,340.06644120221347L301.188671875,340.07879483820625L309.32890625,340.0374414512078L317.469140625,340.04854375590656L325.609375,340.0691636260654L333.74960937500003,340.0879209352168L341.88984374999995,340.09812885613064L350.030078125,340.09789164785394L358.17031249999997,340.09493860807055L366.310546875,340.0884837166488L374.45078125000003,340.1125438371512L382.591015625,340.0922384742997L390.73125000000005,340.08504925264555L398.87148437499997,340.09850091359056L407.01171875,340.05383317490663L415.151953125,340.0829599649439L423.2921875,340.106915558235L431.432421875,340.09331845741457L439.57265625,340.0400657747692L447.712890625,340.0766123144003L455.85312500000003,340.0832201285196L463.99335937499995,340.11510744901483L472.13359375,340.1225695424594L480.27382812499997,340.10555477570904L488.4140625,340.0971589085132L496.554296875,340.09367656641535L504.69453125000007,340.11897273491724L512.834765625,340.1141146367299L520.975,340.09772577980374L529.115234375,340.1089744834885L537.2554687500001,340.10893813055895L545.3957031250001,340.118677869138L553.5359374999999,340.11121369160776L561.6761718749999,340.1017170206789L569.81640625,340.0875388396531L577.956640625,340.116347467204L586.096875,340.1098382091727L594.2371093749999,340.1156109582948L602.37734375,340.10710405073524L610.517578125,340.1101160239022L618.6578125,340.122718497607L626.7980468750001,340.127144778268L634.93828125,340.09925655895495L643.078515625,340.0897014526761L651.21875,340.1076235894802L659.3589843750001,340.1136976717783L667.4992187500001,340.1009569827642L675.6394531249999,340.0966187374525L683.7796874999999,340.11527261753025L691.919921875,340.1206575190651L700.06015625,340.1252021601272L708.200390625,340.11521470045193L716.3406249999999,340.05499941813645L724.480859375,340.1006994765406L732.62109375,340.1199551219345L740.761328125,340.1230565172015L748.9015625000001,340.0683817309892L757.041796875,340.08060740579634L765.18203125,340.11773519721675L773.322265625,340.1217673885926L781.4625000000001,340.0889954909979L789.6027343750001,340.10377460317756L797.7429687499999,340.12206639966524L805.8832031249999,340.12547113652096L814.0234375,340.1230893504593L822.163671875,340.1040992277813L830.30390625,340.0622941278721L838.4441406249999,340.1071501672341L846.584375,340.11956217346295L854.724609375,340.10657278796367L862.86484375,340.105667829325L871.0050781250001,340.096804245271L879.1453125,340.1211766548077L887.285546875,340.1226637878296" fill="none"></path></g></g></g></g></g></g><g transform="translate(41, 377)" clip-path="url(#clip_1)"><clipPath id="clip_1"><rect width="976" height="22"></rect></clipPath><g><g><line x1="0" y1="0" x2="0" y2="5" style="visibility: inherit;" fill="rgb(0, 0, 0)" stroke="rgb(204, 204, 204)" stroke-width="1px"></line><line x1="81.40234375" y1="0" x2="81.40234375" y2="5" style="visibility: inherit;" fill="rgb(0, 0, 0)" stroke="rgb(204, 204, 204)" stroke-width="1px"></line><line x1="162.8046875" y1="0" x2="162.8046875" y2="5" style="visibility: inherit;" fill="rgb(0, 0, 0)" stroke="rgb(204, 204, 204)" stroke-width="1px"></line><line x1="244.20703125" y1="0" x2="244.20703125" y2="5" style="visibility: inherit;" fill="rgb(0, 0, 0)" stroke="rgb(204, 204, 204)" stroke-width="1px"></line><line x1="325.609375" y1="0" x2="325.609375" y2="5" style="visibility: inherit;" fill="rgb(0, 0, 0)" stroke="rgb(204, 204, 204)" stroke-width="1px"></line><line x1="407.01171875" y1="0" x2="407.01171875" y2="5" style="visibility: inherit;" fill="rgb(0, 0, 0)" stroke="rgb(204, 204, 204)" stroke-width="1px"></line><line x1="488.4140625" y1="0" x2="488.4140625" y2="5" style="visibility: inherit;" fill="rgb(0, 0, 0)" stroke="rgb(204, 204, 204)" stroke-width="1px"></line><line x1="569.81640625" y1="0" x2="569.81640625" y2="5" style="visibility: inherit;" fill="rgb(0, 0, 0)" stroke="rgb(204, 204, 204)" stroke-width="1px"></line><line x1="651.21875" y1="0" x2="651.21875" y2="5" style="visibility: inherit;" fill="rgb(0, 0, 0)" stroke="rgb(204, 204, 204)" stroke-width="1px"></line><line x1="732.62109375" y1="0" x2="732.62109375" y2="5" style="visibility: inherit;" fill="rgb(0, 0, 0)" stroke="rgb(204, 204, 204)" stroke-width="1px"></line><line x1="814.0234375" y1="0" x2="814.0234375" y2="5" style="visibility: inherit;" fill="rgb(0, 0, 0)" stroke="rgb(204, 204, 204)" stroke-width="1px"></line><line x1="895.42578125" y1="0" x2="895.42578125" y2="5" style="visibility: inherit;" fill="rgb(0, 0, 0)" stroke="rgb(204, 204, 204)" stroke-width="1px"></line><line x1="976.828125" y1="0" x2="976.828125" y2="5" style="visibility: inherit;" fill="rgb(0, 0, 0)" stroke="rgb(204, 204, 204)" stroke-width="1px"></line></g><g transform="translate(0, 8)"><text style="text-anchor: middle; visibility: hidden; font-family: Roboto, sans-serif; font-size: 12px; font-weight: 200;" x="0" y="0" dx="0em" dy="0.95em" fill="rgb(50, 49, 63)" stroke="none" stroke-width="1px">-10</text><text style="text-anchor: middle; visibility: inherit; font-family: Roboto, sans-serif; font-size: 12px; font-weight: 200;" x="81.40234375" y="0" dx="0em" dy="0.95em" fill="rgb(50, 49, 63)" stroke="none" stroke-width="1px">0</text><text style="text-anchor: middle; visibility: inherit; font-family: Roboto, sans-serif; font-size: 12px; font-weight: 200;" x="162.8046875" y="0" dx="0em" dy="0.95em" fill="rgb(50, 49, 63)" stroke="none" stroke-width="1px">10</text><text style="text-anchor: middle; visibility: inherit; font-family: Roboto, sans-serif; font-size: 12px; font-weight: 200;" x="244.20703125" y="0" dx="0em" dy="0.95em" fill="rgb(50, 49, 63)" stroke="none" stroke-width="1px">20</text><text style="text-anchor: middle; visibility: inherit; font-family: Roboto, sans-serif; font-size: 12px; font-weight: 200;" x="325.609375" y="0" dx="0em" dy="0.95em" fill="rgb(50, 49, 63)" stroke="none" stroke-width="1px">30</text><text style="text-anchor: middle; visibility: inherit; font-family: Roboto, sans-serif; font-size: 12px; font-weight: 200;" x="407.01171875" y="0" dx="0em" dy="0.95em" fill="rgb(50, 49, 63)" stroke="none" stroke-width="1px">40</text><text style="text-anchor: middle; visibility: inherit; font-family: Roboto, sans-serif; font-size: 12px; font-weight: 200;" x="488.4140625" y="0" dx="0em" dy="0.95em" fill="rgb(50, 49, 63)" stroke="none" stroke-width="1px">50</text><text style="text-anchor: middle; visibility: inherit; font-family: Roboto, sans-serif; font-size: 12px; font-weight: 200;" x="569.81640625" y="0" dx="0em" dy="0.95em" fill="rgb(50, 49, 63)" stroke="none" stroke-width="1px">60</text><text style="text-anchor: middle; visibility: inherit; font-family: Roboto, sans-serif; font-size: 12px; font-weight: 200;" x="651.21875" y="0" dx="0em" dy="0.95em" fill="rgb(50, 49, 63)" stroke="none" stroke-width="1px">70</text><text style="text-anchor: middle; visibility: inherit; font-family: Roboto, sans-serif; font-size: 12px; font-weight: 200;" x="732.62109375" y="0" dx="0em" dy="0.95em" fill="rgb(50, 49, 63)" stroke="none" stroke-width="1px">80</text><text style="text-anchor: middle; visibility: inherit; font-family: Roboto, sans-serif; font-size: 12px; font-weight: 200;" x="814.0234375" y="0" dx="0em" dy="0.95em" fill="rgb(50, 49, 63)" stroke="none" stroke-width="1px">90</text><text style="text-anchor: middle; visibility: inherit; font-family: Roboto, sans-serif; font-size: 12px; font-weight: 200;" x="895.42578125" y="0" dx="0em" dy="0.95em" fill="rgb(50, 49, 63)" stroke="none" stroke-width="1px">100</text><text style="text-anchor: middle; visibility: hidden; font-family: Roboto, sans-serif; font-size: 12px; font-weight: 200;" x="976.828125" y="0" dx="0em" dy="0.95em" fill="rgb(50, 49, 63)" stroke="none" stroke-width="1px">110</text></g><line x1="0" y1="0" x2="976.828125" y2="0" fill="rgb(0, 0, 0)" stroke="rgb(204, 204, 204)" stroke-width="1px"></line></g></g></g></g></svg>