<svg viewBox="0 0 1018 400" xmlns="http://www.w3.org/2000/svg"><g><g><g><g><g><line x1="50" y1="377.984375" x2="45" y2="377.984375" style="visibility: inherit;" fill="rgb(0, 0, 0)" stroke="rgb(204, 204, 204)" stroke-width="1px"></line><line x1="50" y1="348.90865384615387" x2="45" y2="348.90865384615387" style="visibility: inherit;" fill="rgb(0, 0, 0)" stroke="rgb(204, 204, 204)" stroke-width="1px"></line><line x1="50" y1="319.8329326923077" x2="45" y2="319.8329326923077" style="visibility: inherit;" fill="rgb(0, 0, 0)" stroke="rgb(204, 204, 204)" stroke-width="1px"></line><line x1="50" y1="290.7572115384615" x2="45" y2="290.7572115384615" style="visibility: inherit;" fill="rgb(0, 0, 0)" stroke="rgb(204, 204, 204)" stroke-width="1px"></line><line x1="50" y1="261.68149038461536" x2="45" y2="261.68149038461536" style="visibility: inherit;" fill="rgb(0, 0, 0)" stroke="rgb(204, 204, 204)" stroke-width="1px"></line><line x1="50" y1="232.60576923076925" x2="45" y2="232.60576923076925" style="visibility: inherit;" fill="rgb(0, 0, 0)" stroke="rgb(204, 204, 204)" stroke-width="1px"></line><line x1="50" y1="203.53004807692312" x2="45" y2="203.53004807692312" style="visibility: inherit;" fill="rgb(0, 0, 0)" stroke="rgb(204, 204, 204)" stroke-width="1px"></line><line x1="50" y1="174.45432692307693" x2="45" y2="174.45432692307693" style="visibility: inherit;" fill="rgb(0, 0, 0)" stroke="rgb(204, 204, 204)" stroke-width="1px"></line><line x1="50" y1="145.3786057692308" x2="45" y2="145.3786057692308" style="visibility: inherit;" fill="rgb(0, 0, 0)" stroke="rgb(204, 204, 204)" stroke-width="1px"></line><line x1="50" y1="116.30288461538463" x2="45" y2="116.30288461538463" style="visibility: inherit;" fill="rgb(0, 0, 0)" stroke="rgb(204, 204, 204)" stroke-width="1px"></line><line x1="50" y1="87.22716346153848" x2="45" y2="87.22716346153848" style="visibility: inherit;" fill="rgb(0, 0, 0)" stroke="rgb(204, 204, 204)" stroke-width="1px"></line><line x1="50" y1="58.151442307692314" x2="45" y2="58.151442307692314" style="visibility: inherit;" fill="rgb(0, 0, 0)" stroke="rgb(204, 204, 204)" stroke-width="1px"></line><line x1="50" y1="29.075721153846136" x2="45" y2="29.075721153846136" style="visibility: inherit;" fill="rgb(0, 0, 0)" stroke="rgb(204, 204, 204)" stroke-width="1px"></line><line x1="50" y1="0" x2="45" y2="0" style="visibility: inherit;" fill="rgb(0, 0, 0)" stroke="rgb(204, 204, 204)" stroke-width="1px"></line></g><g transform="translate(40, 0)"><text style="text-anchor: end; visibility: hidden; font-family: Roboto, sans-serif; font-size: 12px; font-weight: 200;" x="0" y="377.984375" dx="0em" dy="0.3em" fill="rgb(50, 49, 63)" stroke="none" stroke-width="1px">-0.1</text><text style="text-anchor: end; visibility: inherit; font-family: Roboto, sans-serif; font-size: 12px; font-weight: 200;" x="0" y="348.90865384615387" dx="0em" dy="0.3em" fill="rgb(50, 49, 63)" stroke="none" stroke-width="1px">0</text><text style="text-anchor: end; visibility: inherit; font-family: Roboto, sans-serif; font-size: 12px; font-weight: 200;" x="0" y="319.8329326923077" dx="0em" dy="0.3em" fill="rgb(50, 49, 63)" stroke="none" stroke-width="1px">0.1</text><text style="text-anchor: end; visibility: inherit; font-family: Roboto, sans-serif; font-size: 12px; font-weight: 200;" x="0" y="290.7572115384615" dx="0em" dy="0.3em" fill="rgb(50, 49, 63)" stroke="none" stroke-width="1px">0.2</text><text style="text-anchor: end; visibility: inherit; font-family: Roboto, sans-serif; font-size: 12px; font-weight: 200;" x="0" y="261.68149038461536" dx="0em" dy="0.3em" fill="rgb(50, 49, 63)" stroke="none" stroke-width="1px">0.3</text><text style="text-anchor: end; visibility: inherit; font-family: Roboto, sans-serif; font-size: 12px; font-weight: 200;" x="0" y="232.60576923076925" dx="0em" dy="0.3em" fill="rgb(50, 49, 63)" stroke="none" stroke-width="1px">0.4</text><text style="text-anchor: end; visibility: inherit; font-family: Roboto, sans-serif; font-size: 12px; font-weight: 200;" x="0" y="203.53004807692312" dx="0em" dy="0.3em" fill="rgb(50, 49, 63)" stroke="none" stroke-width="1px">0.5</text><text style="text-anchor: end; visibility: inherit; font-family: Roboto, sans-serif; font-size: 12px; font-weight: 200;" x="0" y="174.45432692307693" dx="0em" dy="0.3em" fill="rgb(50, 49, 63)" stroke="none" stroke-width="1px">0.6</text><text style="text-anchor: end; visibility: inherit; font-family: Roboto, sans-serif; font-size: 12px; font-weight: 200;" x="0" y="145.3786057692308" dx="0em" dy="0.3em" fill="rgb(50, 49, 63)" stroke="none" stroke-width="1px">0.7</text><text style="text-anchor: end; visibility: inherit; font-family: Roboto, sans-serif; font-size: 12px; font-weight: 200;" x="0" y="116.30288461538463" dx="0em" dy="0.3em" fill="rgb(50, 49, 63)" stroke="none" stroke-width="1px">0.8</text><text style="text-anchor: end; visibility: inherit; font-family: Roboto, sans-serif; font-size: 12px; font-weight: 200;" x="0" y="87.22716346153848" dx="0em" dy="0.3em" fill="rgb(50, 49, 63)" stroke="none" stroke-width="1px">0.9</text><text style="text-anchor: end; visibility: inherit; font-family: Roboto, sans-serif; font-size: 12px; font-weight: 200;" x="0" y="58.151442307692314" dx="0em" dy="0.3em" fill="rgb(50, 49, 63)" stroke="none" stroke-width="1px">1</text><text style="text-anchor: end; visibility: inherit; font-family: Roboto, sans-serif; font-size: 12px; font-weight: 200;" x="0" y="29.075721153846136" dx="0em" dy="0.3em" fill="rgb(50, 49, 63)" stroke="none" stroke-width="1px">1.1</text><text style="text-anchor: end; visibility: hidden; font-family: Roboto, sans-serif; font-size: 12px; font-weight: 200;" x="0" y="0" dx="0em" dy="0.3em" fill="rgb(50, 49, 63)" stroke="none" stroke-width="1px">1.2</text></g><line x1="50" y1="0" x2="50" y2="377.984375" fill="rgb(0, 0, 0)" stroke="rgb(204, 204, 204)" stroke-width="1px"></line></g></g><g transform="translate(50, 0)" clip-path="url(#clip_0)"><clipPath id="clip_0"><rect width="968" height="377"></rect></clipPath><g><g><g><line x1="0" y1="0" x2="0" y2="377.984375" fill="rgb(0, 0, 0)" stroke="rgb(60, 60, 60)" stroke-width="1px" opacity="0.25"></line><line x1="80.66666666666666" y1="0" x2="80.66666666666666" y2="377.984375" fill="rgb(0, 0, 0)" stroke="rgb(60, 60, 60)" stroke-width="1px" opacity="0.25"></line><line x1="161.33333333333331" y1="0" x2="161.33333333333331" y2="377.984375" fill="rgb(0, 0, 0)" stroke="rgb(60, 60, 60)" stroke-width="1px" opacity="0.25"></line><line x1="242" y1="0" x2="242" y2="377.984375" fill="rgb(0, 0, 0)" stroke="rgb(60, 60, 60)" stroke-width="1px" opacity="0.25"></line><line x1="322.66666666666663" y1="0" x2="322.66666666666663" y2="377.984375" fill="rgb(0, 0, 0)" stroke="rgb(60, 60, 60)" stroke-width="1px" opacity="0.25"></line><line x1="403.33333333333337" y1="0" x2="403.33333333333337" y2="377.984375" fill="rgb(0, 0, 0)" stroke="rgb(60, 60, 60)" stroke-width="1px" opacity="0.25"></line><line x1="484" y1="0" x2="484" y2="377.984375" fill="rgb(0, 0, 0)" stroke="rgb(60, 60, 60)" stroke-width="1px" opacity="0.25"></line><line x1="564.6666666666667" y1="0" x2="564.6666666666667" y2="377.984375" fill="rgb(0, 0, 0)" stroke="rgb(60, 60, 60)" stroke-width="1px" opacity="0.25"></line><line x1="645.3333333333333" y1="0" x2="645.3333333333333" y2="377.984375" fill="rgb(0, 0, 0)" stroke="rgb(60, 60, 60)" stroke-width="1px" opacity="0.25"></line><line x1="726" y1="0" x2="726" y2="377.984375" fill="rgb(0, 0, 0)" stroke="rgb(60, 60, 60)" stroke-width="1px" opacity="0.25"></line><line x1="806.6666666666667" y1="0" x2="806.6666666666667" y2="377.984375" fill="rgb(0, 0, 0)" stroke="rgb(60, 60, 60)" stroke-width="1px" opacity="0.25"></line><line x1="887.3333333333333" y1="0" x2="887.3333333333333" y2="377.984375" fill="rgb(0, 0, 0)" stroke="rgb(60, 60, 60)" stroke-width="1px" opacity="0.25"></line><line x1="968" y1="0" x2="968" y2="377.984375" fill="rgb(0, 0, 0)" stroke="rgb(60, 60, 60)" stroke-width="1px" opacity="0.25"></line></g><g><line x1="0" y1="377.984375" x2="968" y2="377.984375" fill="rgb(0, 0, 0)" stroke="rgb(60, 60, 60)" stroke-width="1px" opacity="0.25"></line><line x1="0" y1="348.90865384615387" x2="968" y2="348.90865384615387" fill="rgb(0, 0, 0)" stroke="rgb(60, 60, 60)" stroke-width="1px" opacity="0.25"></line><line x1="0" y1="319.8329326923077" x2="968" y2="319.8329326923077" fill="rgb(0, 0, 0)" stroke="rgb(60, 60, 60)" stroke-width="1px" opacity="0.25"></line><line x1="0" y1="290.7572115384615" x2="968" y2="290.7572115384615" fill="rgb(0, 0, 0)" stroke="rgb(60, 60, 60)" stroke-width="1px" opacity="0.25"></line><line x1="0" y1="261.68149038461536" x2="968" y2="261.68149038461536" fill="rgb(0, 0, 0)" stroke="rgb(60, 60, 60)" stroke-width="1px" opacity="0.25"></line><line x1="0" y1="232.60576923076925" x2="968" y2="232.60576923076925" fill="rgb(0, 0, 0)" stroke="rgb(60, 60, 60)" stroke-width="1px" opacity="0.25"></line><line x1="0" y1="203.53004807692312" x2="968" y2="203.53004807692312" fill="rgb(0, 0, 0)" stroke="rgb(60, 60, 60)" stroke-width="1px" opacity="0.25"></line><line x1="0" y1="174.45432692307693" x2="968" y2="174.45432692307693" fill="rgb(0, 0, 0)" stroke="rgb(60, 60, 60)" stroke-width="1px" opacity="0.25"></line><line x1="0" y1="145.3786057692308" x2="968" y2="145.3786057692308" fill="rgb(0, 0, 0)" stroke="rgb(60, 60, 60)" stroke-width="1px" opacity="0.25"></line><line x1="0" y1="116.30288461538463" x2="968" y2="116.30288461538463" fill="rgb(0, 0, 0)" stroke="rgb(60, 60, 60)" stroke-width="1px" opacity="0.25"></line><line x1="0" y1="87.22716346153848" x2="968" y2="87.22716346153848" fill="rgb(0, 0, 0)" stroke="rgb(60, 60, 60)" stroke-width="1px" opacity="0.25"></line><line x1="0" y1="58.151442307692314" x2="968" y2="58.151442307692314" fill="rgb(0, 0, 0)" stroke="rgb(60, 60, 60)" stroke-width="1px" opacity="0.25"></line><line x1="0" y1="29.075721153846136" x2="968" y2="29.075721153846136" fill="rgb(0, 0, 0)" stroke="rgb(60, 60, 60)" stroke-width="1px" opacity="0.25"></line><line x1="0" y1="0" x2="968" y2="0" fill="rgb(0, 0, 0)" stroke="rgb(60, 60, 60)" stroke-width="1px" opacity="0.25"></line></g></g></g><g><g><line x1="0" y1="348.90865384615387" x2="968" y2="348.90865384615387" fill="rgb(0, 0, 0)" stroke="rgb(153, 153, 153)" stroke-width="1.5px"></line></g></g><g><g><line x1="80.66666666666666" y1="0" x2="80.66666666666666" y2="377.984375" fill="rgb(0, 0, 0)" stroke="rgb(153, 153, 153)" stroke-width="1.5px"></line></g></g><g><g><g><g><g><path style="fill: none;" stroke="rgb(0, 119, 187)" stroke-width="2px" d="M80.66666666666666,272.3935954417461L88.73333333333332,281.957978825452L96.80000000000001,245.84755618556213L104.86666666666667,251.01439189672683L112.93333333333334,273.5617680126526L121,276.2820176333806L129.06666666666666,268.38436307459415L137.13333333333333,245.112357699462L145.2,249.95242765048496L153.26666666666665,252.82506259251247L161.33333333333331,254.5374864560934L169.39999999999998,255.56095602134977L177.46666666666664,213.26913974995554L185.53333333333336,230.81146702532826L193.60000000000002,195.3974337691907L201.66666666666669,198.65139747120747L209.73333333333335,173.05310583191508L217.8,176.06238203656952L225.86666666666667,174.80696122127713L233.93333333333334,213.84304213043148L242,194.4144100893006L250.0666666666667,170.51493176941463L258.1333333333333,186.7817077058018L266.20000000000005,184.29922577599456L274.26666666666665,219.53707382451208L282.33333333333337,197.83121828446755L290.4,175.62591294443837L298.4666666666667,183.7269675564091L306.5333333333333,194.70880476068228L314.6,207.41911121240557L322.66666666666663,205.86348575186761L330.73333333333335,204.93011060760563L338.79999999999995,207.43068666447795L346.8666666666667,178.32501144961492L354.9333333333333,200.6494337493584L363,229.34709872231338L371.0666666666667,215.95967396547312L379.1333333333333,238.53324263980232L387.20000000000005,255.1379864803597L395.26666666666665,255.9190281664825L403.33333333333337,265.569457767114L411.4,243.81429483030624L419.4666666666667,203.2157815871354L427.5333333333333,163.55365849910643L435.6,210.1502359637917L443.66666666666663,228.9263778566687L451.73333333333335,227.94965226004362L459.79999999999995,209.00000427106022L467.8666666666667,206.81202179337592L475.9333333333333,217.74163957193073L484,193.6933903431916L492.06666666666666,194.5674490208528L500.1333333333334,207.3342949586129L508.20000000000005,172.14596842830306L516.2666666666667,160.21478575764831L524.3333333333333,186.72269700067793L532.4000000000001,220.99105637711293L540.4666666666667,174.21882337995777L548.5333333333333,164.5190962122897L556.5999999999999,149.51745359637917L564.6666666666667,161.94068507328737L572.7333333333333,166.3340195435981L580.8,181.21243095692822L588.8666666666666,165.65466327483085L596.9333333333334,174.683615296192L605,195.40399472379423L613.0666666666666,174.16960153495054L621.1333333333334,133.88353974352302L629.2,189.28756202281227L637.2666666666667,201.1057618100284L645.3333333333333,165.34825105554737L653.4000000000001,146.95434208650056L661.4666666666667,148.16040743621616L669.5333333333333,167.24765927666502L677.5999999999999,154.21519585083908L685.6666666666667,137.21391148003377L693.7333333333333,136.19494717286034L701.8,141.70477048803204L709.8666666666666,193.98030046951763L717.9333333333334,154.95176541957304L726,146.83765953658386L734.0666666666666,172.57521590245744L742.1333333333334,160.47233424214846L750.2,186.87722609136802L758.2666666666667,162.93233152382695L766.3333333333333,206.71683709099457L774.4000000000001,205.44212148536596L782.4666666666667,226.10150916844225L790.5333333333333,217.07292473183458L798.5999999999999,168.80733997696316L806.6666666666667,185.757024166685L814.7333333333333,211.2298463613997L822.8,235.69534599353824L830.8666666666666,228.95043219246406L838.9333333333334,240.20649559270106L847,222.4753121705559L855.0666666666666,208.77600463362702L863.1333333333334,191.37461379615996L871.2,150.32775593191656L879.2666666666667,165.48747089044338" fill="none"></path></g><g><path style="fill: none;" stroke="rgb(255, 112, 67)" stroke-width="2px" d="M80.66666666666666,157.0162520594895L88.73333333333332,126.62371291963458L96.80000000000001,104.70370031986535L104.86666666666667,91.4000612321901L112.93333333333334,84.27547691472554L121,78.6177446655945L129.06666666666666,74.20530082747489L137.13333333333333,72.81627588386269L145.2,71.18077078418247L153.26666666666665,69.59969114109086L161.33333333333331,68.04826957277727L169.39999999999998,66.3840277821656L177.46666666666664,64.66985607696358L185.53333333333336,63.75318551309764L193.60000000000002,63.074886443185946L201.66666666666669,63.293370259962586L209.73333333333335,62.560190926719656L217.8,62.34100218308509L225.86666666666667,62.13595507671651L233.93333333333334,62.96898838045858L242,62.43921097413511L250.0666666666667,61.82718745590041L258.1333333333333,61.53352270760016L266.20000000000005,61.136700350949816L274.26666666666665,61.56046799725592L282.33333333333337,62.23758532265734L290.4,61.981996326049845L298.4666666666667,61.31386512445755L306.5333333333333,62.23669617206267L314.6,62.33077627920551L322.66666666666663,62.03791112272474L330.73333333333335,61.32903018282802L338.79999999999995,60.77500550207235L346.8666666666667,60.44259071055062L354.9333333333333,60.243141841733035L363,60.30732119184984L371.0666666666667,59.794282796132805L379.1333333333333,59.90930961747543L387.20000000000005,60.162174377734054L395.26666666666665,60.07489204535504L403.33333333333337,60.960150156850375L411.4,60.88460650051367L419.4666666666667,60.28773430462554L427.5333333333333,60.186996348614116L435.6,60.99064439115442L443.66666666666663,61.04998336142802L451.73333333333335,60.97527477031874L459.79999999999995,60.13990242583302L467.8666666666667,59.50998287237247L475.9333333333333,59.49972847493802L484,59.71419285082008L492.06666666666666,59.898030929078274L500.1333333333334,59.40162832135219L508.20000000000005,59.21409872998407L516.2666666666667,59.395734683555034L524.3333333333333,59.265715067843274L532.4000000000001,59.31639944519564L540.4666666666667,59.03426525751104L548.5333333333333,59.06721758572937L556.5999999999999,59.36276544973163L564.6666666666667,59.5952466886703L572.7333333333333,59.29350140335026L580.8,59.16760675269558L588.8666666666666,59.07368578879032L596.9333333333334,59.127638251521915L605,59.196785008377915L613.0666666666666,58.92572824839543L621.1333333333334,58.6527822191391L629.2,59.022176430022974L637.2666666666667,59.50120525011193L645.3333333333333,59.34738158128997L653.4000000000001,59.18155068594697L661.4666666666667,59.30266916308273L669.5333333333333,59.485652222631174L677.5999999999999,59.31966559128905L685.6666666666667,59.0362249451671L693.7333333333333,58.792623863444014L701.8,58.90384857577674L709.8666666666666,59.871442566247524L717.9333333333334,59.84530043804244L726,59.35160585321909L734.0666666666666,58.981852408275266L742.1333333333334,59.881476518721726L750.2,60.237402317672824L758.2666666666667,59.66040367504717L766.3333333333333,59.24066779542194L774.4000000000001,59.63230006935135L782.4666666666667,59.59150296663786L790.5333333333333,59.1625590233514L798.5999999999999,58.81326485762518L806.6666666666667,58.64046363740642L814.7333333333333,58.84932078717914L822.8,59.89388534581838L830.8666666666666,59.63814909144333L838.9333333333334,59.31924284501406L847,59.14628327066896L855.0666666666666,59.35504540796579L863.1333333333334,59.38838182278157L871.2,59.09583885757501L879.2666666666667,58.883544731426205" fill="none"></path></g></g></g></g><g opacity="0.20000000298023224"><g><g><g><path style="fill: none;" stroke="rgb(0, 119, 187)" stroke-width="2px" d="M80.66666666666666,272.3935954417461L88.73333333333332,287.6966088556756L96.80000000000001,211.1815504512678L104.86666666666667,257.0905906930566L112.93333333333334,302.9996222696052L121,280.04510214871084L129.06666666666666,257.0905906930566L137.13333333333333,211.1815504512678L145.2,257.0905906930566L153.26666666666665,257.0905906930566L161.33333333333331,257.0905906930566L169.39999999999998,257.0905906930566L177.46666666666664,149.9695054607896L185.53333333333336,257.0905906930566L193.60000000000002,142.318011751685L201.66666666666669,203.53004807692312L209.73333333333335,134.66650071210012L217.8,180.57553228864876L225.86666666666667,172.92402124906388L233.93333333333334,272.3935954417461L242,165.27252753995936L250.0666666666667,134.66650071210012L258.1333333333333,211.1815504512678L266.20000000000005,180.57553228864876L274.26666666666665,272.3935954417461L282.33333333333337,165.27252753995936L290.4,142.318011751685L298.4666666666667,195.87853703733825L306.5333333333333,211.1815504512678L314.6,226.4845638651974L322.66666666666663,203.53004807692312L330.73333333333335,203.53004807692312L338.79999999999995,211.1815504512678L346.8666666666667,134.66650071210012L354.9333333333333,234.1360662395421L363,272.3935954417461L371.0666666666667,195.87853703733825L379.1333333333333,272.3935954417461L387.20000000000005,280.04510214871084L395.26666666666665,257.0905906930566L403.33333333333337,280.04510214871084L411.4,211.1815504512678L419.4666666666667,142.318011751685L427.5333333333333,104.06047388424095L435.6,280.04510214871084L443.66666666666663,257.0905906930566L451.73333333333335,226.4845638651974L459.79999999999995,180.57553228864876L467.8666666666667,203.53004807692312L475.9333333333333,234.1360662395421L484,157.62101650037448L492.06666666666666,195.87853703733825L500.1333333333334,226.4845638651974L508.20000000000005,119.36347863293038L516.2666666666667,142.318011751685L524.3333333333333,226.4845638651974L532.4000000000001,272.3935954417461L540.4666666666667,104.06047388424095L548.5333333333333,149.9695054607896L556.5999999999999,127.01498967251526L564.6666666666667,180.57553228864876L572.7333333333333,172.92402124906388L580.8,203.53004807692312L588.8666666666666,142.318011751685L596.9333333333334,188.22704332823363L605,226.4845638651974L613.0666666666666,142.318011751685L621.1333333333334,73.45444705638174L629.2,272.3935954417461L637.2666666666667,218.83306149085269L645.3333333333333,111.71198492382582L653.4000000000001,119.36347863293038L661.4666666666667,149.9695054607896L669.5333333333333,195.87853703733825L677.5999999999999,134.66650071210012L685.6666666666667,111.71198492382582L693.7333333333333,134.66650071210012L701.8,149.9695054607896L709.8666666666666,272.3935954417461L717.9333333333334,96.40896284465607L726,134.66650071210012L734.0666666666666,211.1815504512678L742.1333333333334,142.318011751685L750.2,226.4845638651974L758.2666666666667,127.01498967251526L766.3333333333333,272.3935954417461L774.4000000000001,203.53004807692312L782.4666666666667,257.0905906930566L790.5333333333333,203.53004807692312L798.5999999999999,96.40896284465607L806.6666666666667,211.1815504512678L814.7333333333333,249.4390796534717L822.8,272.3935954417461L830.8666666666666,218.83306149085269L838.9333333333334,257.0905906930566L847,195.87853703733825L855.0666666666666,188.22704332823363L863.1333333333334,165.27252753995936L871.2,88.75746913555153L879.2666666666667,188.22704332823363" fill="none"></path></g><g><path style="fill: none;" stroke="rgb(255, 112, 67)" stroke-width="2px" d="M80.66666666666666,157.0162520594895L88.73333333333332,108.3881894357216L96.80000000000001,83.66048822408683L104.86666666666667,75.75498166508397L112.93333333333334,74.97361962984387L121,70.79106418143668L129.06666666666666,67.89543553986226L137.13333333333333,70.79106418143668L145.2,68.76871844266466L153.26666666666665,67.25197213644589L161.33333333333331,65.7352084997468L169.39999999999998,63.896721826579714L177.46666666666664,62.104195587193715L185.53333333333336,62.37997552036092L193.60000000000002,62.05823515341257L201.66666666666669,63.62094189341251L209.73333333333335,61.46073218377733L217.8,62.01227471963142L225.86666666666667,61.82841565402651L233.93333333333334,64.21846219352803L242,61.64457391890192L250.0666666666667,60.90917231744296L258.1333333333333,61.09303138304787L266.20000000000005,60.5414715167135L274.26666666666665,62.19611645475601L282.33333333333337,63.25325842316333L290.4,61.59861348512077L298.4666666666667,60.311669347807765L306.5333333333333,63.62094189341251L314.6,62.471896387923216L322.66666666666663,61.59861348512077L330.73333333333335,60.26570891402662L338.79999999999995,59.94396854707826L346.8666666666667,59.94396854707826L354.9333333333333,59.94396854707826L363,60.40359021537006L371.0666666666667,59.024725210494715L379.1333333333333,60.081849848421705L387.20000000000005,60.5414715167135L395.26666666666665,59.94396854707826L403.33333333333337,62.2880373223183L411.4,60.77129101609952L419.4666666666667,59.392426011224174L427.5333333333333,60.03588941464056L435.6,62.19611645475601L443.66666666666663,61.13899181682902L451.73333333333335,60.86321188366181L459.79999999999995,58.886843909151274L467.8666666666667,58.56510354220292L475.9333333333333,59.48434687878647L484,60.03588941464056L492.06666666666666,60.173788046464324L500.1333333333334,58.657024409765214L508.20000000000005,58.93280434293242L516.2666666666667,59.668188613911056L524.3333333333333,59.07068564427586L532.4000000000001,59.392426011224174L540.4666666666667,58.61106397598407L548.5333333333333,59.11664607805701L556.5999999999999,59.80608724573482L564.6666666666667,59.94396854707826L572.7333333333333,58.84088347537013L580.8,58.97876477671357L588.8666666666666,58.93280434293242L596.9333333333334,59.2085669456193L605,59.30050514366188L613.0666666666666,58.51914310842177L621.1333333333334,58.24336317525461L629.2,59.57626774634876L637.2666666666667,60.21974848024547L645.3333333333333,59.11664607805701L653.4000000000001,58.93280434293242L661.4666666666667,59.48434687878647L669.5333333333333,59.760126811953675L677.5999999999999,59.07068564427586L685.6666666666667,58.61106397598407L693.7333333333333,58.42722224085948L701.8,59.07068564427586L709.8666666666666,61.32283355195361L717.9333333333334,59.80608724573482L726,58.61106397598407L734.0666666666666,58.42722224085948L742.1333333333334,61.23091268439131L750.2,60.77129101609952L758.2666666666667,58.794905711108655L766.3333333333333,58.61106397598407L774.4000000000001,60.21974848024547L782.4666666666667,59.530307312567615L790.5333333333333,58.51914310842177L798.5999999999999,58.289323609035755L806.6666666666667,58.38126180707833L814.7333333333333,59.162606511838156L822.8,61.46073218377733L830.8666666666666,59.25454470988073L838.9333333333334,58.84088347537013L847,58.886843909151274L855.0666666666666,59.668188613911056L863.1333333333334,59.43838644500532L871.2,58.657024409765214L879.2666666666667,58.56510354220292" fill="none"></path></g></g></g></g></g></g><g transform="translate(50, 377)" clip-path="url(#clip_1)"><clipPath id="clip_1"><rect width="968" height="22"></rect></clipPath><g><g><line x1="0" y1="0" x2="0" y2="5" style="visibility: inherit;" fill="rgb(0, 0, 0)" stroke="rgb(204, 204, 204)" stroke-width="1px"></line><line x1="80.66666666666666" y1="0" x2="80.66666666666666" y2="5" style="visibility: inherit;" fill="rgb(0, 0, 0)" stroke="rgb(204, 204, 204)" stroke-width="1px"></line><line x1="161.33333333333331" y1="0" x2="161.33333333333331" y2="5" style="visibility: inherit;" fill="rgb(0, 0, 0)" stroke="rgb(204, 204, 204)" stroke-width="1px"></line><line x1="242" y1="0" x2="242" y2="5" style="visibility: inherit;" fill="rgb(0, 0, 0)" stroke="rgb(204, 204, 204)" stroke-width="1px"></line><line x1="322.66666666666663" y1="0" x2="322.66666666666663" y2="5" style="visibility: inherit;" fill="rgb(0, 0, 0)" stroke="rgb(204, 204, 204)" stroke-width="1px"></line><line x1="403.33333333333337" y1="0" x2="403.33333333333337" y2="5" style="visibility: inherit;" fill="rgb(0, 0, 0)" stroke="rgb(204, 204, 204)" stroke-width="1px"></line><line x1="484" y1="0" x2="484" y2="5" style="visibility: inherit;" fill="rgb(0, 0, 0)" stroke="rgb(204, 204, 204)" stroke-width="1px"></line><line x1="564.6666666666667" y1="0" x2="564.6666666666667" y2="5" style="visibility: inherit;" fill="rgb(0, 0, 0)" stroke="rgb(204, 204, 204)" stroke-width="1px"></line><line x1="645.3333333333333" y1="0" x2="645.3333333333333" y2="5" style="visibility: inherit;" fill="rgb(0, 0, 0)" stroke="rgb(204, 204, 204)" stroke-width="1px"></line><line x1="726" y1="0" x2="726" y2="5" style="visibility: inherit;" fill="rgb(0, 0, 0)" stroke="rgb(204, 204, 204)" stroke-width="1px"></line><line x1="806.6666666666667" y1="0" x2="806.6666666666667" y2="5" style="visibility: inherit;" fill="rgb(0, 0, 0)" stroke="rgb(204, 204, 204)" stroke-width="1px"></line><line x1="887.3333333333333" y1="0" x2="887.3333333333333" y2="5" style="visibility: inherit;" fill="rgb(0, 0, 0)" stroke="rgb(204, 204, 204)" stroke-width="1px"></line><line x1="968" y1="0" x2="968" y2="5" style="visibility: inherit;" fill="rgb(0, 0, 0)" stroke="rgb(204, 204, 204)" stroke-width="1px"></line></g><g transform="translate(0, 8)"><text style="text-anchor: middle; visibility: hidden; font-family: Roboto, sans-serif; font-size: 12px; font-weight: 200;" x="0" y="0" dx="0em" dy="0.95em" fill="rgb(50, 49, 63)" stroke="none" stroke-width="1px">-10</text><text style="text-anchor: middle; visibility: inherit; font-family: Roboto, sans-serif; font-size: 12px; font-weight: 200;" x="80.66666666666666" y="0" dx="0em" dy="0.95em" fill="rgb(50, 49, 63)" stroke="none" stroke-width="1px">0</text><text style="text-anchor: middle; visibility: inherit; font-family: Roboto, sans-serif; font-size: 12px; font-weight: 200;" x="161.33333333333331" y="0" dx="0em" dy="0.95em" fill="rgb(50, 49, 63)" stroke="none" stroke-width="1px">10</text><text style="text-anchor: middle; visibility: inherit; font-family: Roboto, sans-serif; font-size: 12px; font-weight: 200;" x="242" y="0" dx="0em" dy="0.95em" fill="rgb(50, 49, 63)" stroke="none" stroke-width="1px">20</text><text style="text-anchor: middle; visibility: inherit; font-family: Roboto, sans-serif; font-size: 12px; font-weight: 200;" x="322.66666666666663" y="0" dx="0em" dy="0.95em" fill="rgb(50, 49, 63)" stroke="none" stroke-width="1px">30</text><text style="text-anchor: middle; visibility: inherit; font-family: Roboto, sans-serif; font-size: 12px; font-weight: 200;" x="403.33333333333337" y="0" dx="0em" dy="0.95em" fill="rgb(50, 49, 63)" stroke="none" stroke-width="1px">40</text><text style="text-anchor: middle; visibility: inherit; font-family: Roboto, sans-serif; font-size: 12px; font-weight: 200;" x="484" y="0" dx="0em" dy="0.95em" fill="rgb(50, 49, 63)" stroke="none" stroke-width="1px">50</text><text style="text-anchor: middle; visibility: inherit; font-family: Roboto, sans-serif; font-size: 12px; font-weight: 200;" x="564.6666666666667" y="0" dx="0em" dy="0.95em" fill="rgb(50, 49, 63)" stroke="none" stroke-width="1px">60</text><text style="text-anchor: middle; visibility: inherit; font-family: Roboto, sans-serif; font-size: 12px; font-weight: 200;" x="645.3333333333333" y="0" dx="0em" dy="0.95em" fill="rgb(50, 49, 63)" stroke="none" stroke-width="1px">70</text><text style="text-anchor: middle; visibility: inherit; font-family: Roboto, sans-serif; font-size: 12px; font-weight: 200;" x="726" y="0" dx="0em" dy="0.95em" fill="rgb(50, 49, 63)" stroke="none" stroke-width="1px">80</text><text style="text-anchor: middle; visibility: inherit; font-family: Roboto, sans-serif; font-size: 12px; font-weight: 200;" x="806.6666666666667" y="0" dx="0em" dy="0.95em" fill="rgb(50, 49, 63)" stroke="none" stroke-width="1px">90</text><text style="text-anchor: middle; visibility: inherit; font-family: Roboto, sans-serif; font-size: 12px; font-weight: 200;" x="887.3333333333333" y="0" dx="0em" dy="0.95em" fill="rgb(50, 49, 63)" stroke="none" stroke-width="1px">100</text><text style="text-anchor: middle; visibility: hidden; font-family: Roboto, sans-serif; font-size: 12px; font-weight: 200;" x="968" y="0" dx="0em" dy="0.95em" fill="rgb(50, 49, 63)" stroke="none" stroke-width="1px">110</text></g><line x1="0" y1="0" x2="968" y2="0" fill="rgb(0, 0, 0)" stroke="rgb(204, 204, 204)" stroke-width="1px"></line></g></g></g></g></svg>